Godzilla vs Biollante (1989) DVDRip  Original Japanese version
 
http://www.imdb.com/title/tt0097444/



General
Complete name                    : Godzilla vs Biollante (1989)DVD_VOLUME.Title1.avi
Format                           : AVI
Format/Info                      : Audio Video Interleave
File size                        : 1.80 GiB
Duration                         : 1h 44mn
Overall bit rate                 : 2 460 Kbps
Movie name                       : DVD_VOLUME.Title1.DVDRip
Writing application              : Lavf52.33.0
Original source form/Name        : DVD_VOLUME

Video
ID                               : 0
Format                           : MPEG-4 Visual
Format profile                   : Simple@L3
Format settings, BVOP            : No
Format settings, QPel            : No
Format settings, GMC             : No warppoints
Format settings, Matrix          : Default (H.263)
Codec ID                         : XVID
Codec ID/Hint                    : XviD
Duration                         : 1h 44mn
Bit rate                         : 2000 Kbps
Width                            : 720 pixels
Height                           : 406 pixels
Display aspect ratio             : 16:9
Frame rate                       : 29.970 fps
Resolution                       : 24 bits
Colorimetry                      : 4:2:0
Scan type                        : Progressive
Bits/(Pixel*Frame)               : 0.228
Stream size                      : 1.46 GiB (81%)
Writing library                  : XviD 1.2.1 (UTC 2008-12-04)

Audio
ID                               : 1
Format                           : AC-3
Format/Info                      : Audio Coding 3
Codec ID                         : 2000
Duration                         : 1h 44mn
Bit rate mode                    : Constant
Bit rate                         : 448 Kbps
Channel(s)                       : 6 channels
Channel positions                : Front: L C R, Surround: L R, LFE
Sampling rate                    : 48.0 KHz
Stream size                      : 335 MiB (18%)
Alignment                        : Aligned on interleaves
Interleave, duration             : 32 ms (0.96 video frame)

